# xmcd
#
# Track frame offsets:
#	150
#	12617
#	23652
#	42157
#	63355
#	82247
#	92430
#	104510
#	116800
#	138212
#	159387
#	172025
#	185355
#
# Disc length: 2619 seconds
#
# Revision: 1
# Processed by: cddbd v1.5.2PL0 Copyright (c) Steve Scherf et al.
# Submitted via: EasyCDDAExtractor 11.5.3.1
#
DISCID=a80a390d
DTITLE=Leif Kerstein and Winchesters - Hard Times
DYEAR=1998
DGENRE=Country
TTITLE0=You're my best friend
TTITLE1=It keeps right on a-hurting
TTITLE2=Children and mortgage
TTITLE3=Back home again
TTITLE4=I'm going home
TTITLE5=Put another log on the fire
TTITLE6=I take a lot of pride in what I am
TTITLE7=King of the road
TTITLE8=Ramblin' man
TTITLE9=Travelin' man
TTITLE10=Sing me back home
TTITLE11=Comanche (Winchester #3)
TTITLE12=Is anybody goin to San Antone
EXTD=
EXTT0=
EXTT1=
EXTT2=
EXTT3=
EXTT4=
EXTT5=
EXTT6=
EXTT7=
EXTT8=
EXTT9=
EXTT10=
EXTT11=
EXTT12=
PLAYORDER=
